<svg width="472" height="600" viewBox="0 0 472 600" fill="none" xmlns="http://www.w3.org/2000/svg">
<g clip-path="url(#clip0_807_5660)">
<path d="M0 0H466C469.314 0 472 2.68629 472 6V594C472 597.314 469.314 600 466 600H0V0Z" fill="#624CE0"/>
<g clip-path="url(#clip1_807_5660)">
<path d="M397.252 600.233H110.083L129.122 364.991C129.122 371.608 183.054 376.962 249.576 376.962C316.099 376.962 370.031 371.608 370.031 365.001L397.252 600.233Z" fill="#FFA800"/>
<path d="M370.03 365.001C370.03 371.608 316.104 376.963 249.576 376.963C183.049 376.963 129.122 371.608 129.122 365.001C129.122 312.992 183.054 270.828 249.576 270.828C316.099 270.828 370.03 312.992 370.03 365.001Z" stroke="black" stroke-width="1.53419" stroke-miterlimit="10"/>
<path d="M370.03 365.001C370.03 371.608 316.104 376.963 249.576 376.963C183.049 376.963 129.122 371.608 129.122 365.001C129.122 358.394 183.054 353.045 249.576 353.045C316.099 353.045 370.03 358.399 370.03 365.001Z" stroke="black" stroke-width="1.53419" stroke-miterlimit="10"/>
<path d="M268.366 459.758L237.416 419.357C227.229 406.061 235.933 386.516 252.395 385.708L313.803 382.69C330.766 381.862 341.158 401.5 331.237 415.64L300.778 459.057C298.983 461.665 296.594 463.809 293.807 465.313C291.021 466.816 287.917 467.636 284.751 467.705C281.586 467.773 278.449 467.088 275.601 465.706C272.752 464.325 270.272 462.286 268.366 459.758Z" fill="#0A5DFF"/>
<path d="M288.352 362.107H288.32V362.091L288.352 362.107Z" fill="#FF6E6E"/>
<path d="M288.352 362.107H288.32V362.091L288.352 362.107Z" fill="black"/>
<path d="M307.876 361.897C307.876 371.24 294.069 374.462 294.069 374.462L286.173 406.168L274.155 399.423L278.573 378.364C260.787 369.563 253.704 363.769 258.552 348.437C259.541 345.216 261.388 342.325 263.896 340.076C265.352 338.778 267.019 337.74 268.826 337.007C271.812 336.034 275.023 335.995 278.031 336.895C285.309 338.94 288.07 344.509 288.873 350.14C286.756 354.088 284.373 360.153 288.31 362.081H288.341C293.036 362.158 297.592 355.351 297.592 355.351L304.174 355.065C306.168 356.077 307.876 358.041 307.876 361.897Z" fill="#FF6E6E"/>
<path d="M304.184 355.085L297.602 355.372C297.602 355.372 293.046 362.178 288.351 362.102H288.32C284.383 360.174 286.786 354.109 288.883 350.161C288.08 344.535 285.303 338.976 278.041 336.915C275.033 336.016 271.822 336.055 268.836 337.028C256.184 326.703 269.348 314.317 274.119 319.855C279.233 325.782 286.224 324.79 298.896 332.344C315.066 341.973 304.184 355.085 304.184 355.085Z" fill="black"/>
<path d="M278.333 345.583C279.533 345.583 280.506 344.61 280.506 343.41C280.506 342.21 279.533 341.237 278.333 341.237C277.132 341.237 276.159 342.21 276.159 343.41C276.159 344.61 277.132 345.583 278.333 345.583Z" fill="black"/>
<path d="M268.023 342.464C269.223 342.464 270.196 341.491 270.196 340.291C270.196 339.09 269.223 338.117 268.023 338.117C266.823 338.117 265.85 339.09 265.85 340.291C265.85 341.491 266.823 342.464 268.023 342.464Z" fill="black"/>
<path d="M274.385 340.408L266.183 346.095" stroke="black" stroke-width="1.53419" stroke-miterlimit="10"/>
<path d="M129.122 365.001C129.122 358.399 183.054 353.045 249.576 353.045C316.099 353.045 370.03 358.399 370.03 365.001" stroke="black" stroke-width="1.53419" stroke-miterlimit="10"/>
<path d="M249.576 249.472V502.255" stroke="black" stroke-width="2.55698" stroke-miterlimit="10"/>
<path d="M286.53 424.84L303.278 450.2" stroke="black" stroke-width="1.53419" stroke-miterlimit="10"/>
<path d="M203.868 418.069C203.868 418.069 242.617 395.24 251.219 394.611C255.412 394.304 257.565 395.204 258.312 397.879C259.334 401.535 257.289 403.504 257.289 403.504C257.289 403.504 260.465 405.785 260.465 409.324C260.465 412.863 257.447 415.149 257.447 415.149C257.447 415.149 260.112 417.276 260.792 420.022C262.664 427.576 256.015 433.733 251.863 436.811C246.197 441.005 200.667 486.744 168.991 468.907C137.315 451.069 200.422 398.426 233.939 393.731" stroke="black" stroke-width="1.53419" stroke-miterlimit="10"/>
<path d="M323.908 559.618L330.08 600.233H258.597C258.597 600.233 267.235 584.916 278.076 581.976C278.076 581.976 272.231 571.6 265.547 556.856C256.23 555.803 248.758 553.154 242.77 549.63L247.746 600.233H176.263C176.263 600.233 184.9 584.916 195.742 581.976C195.742 581.976 159.172 485.051 187.841 460.085C213.104 438.095 247.935 458.77 255.856 463.992C291.761 433.947 343.392 480.72 349.002 507.522C358.626 553.563 323.908 559.618 323.908 559.618Z" fill="black"/>
<path d="M237.227 506.453L243.532 557.363" stroke="white" stroke-width="1.02279" stroke-miterlimit="10"/>
<path d="M250.375 497.652C253.709 524.689 265.548 556.856 265.548 556.856" stroke="white" stroke-width="1.02279" stroke-miterlimit="10"/>
<path d="M255.846 463.992C252.471 466.876 250.64 471.76 249.898 477.825" stroke="white" stroke-width="1.02279" stroke-miterlimit="10"/>
<path d="M312.049 511.777L327.815 576.484" stroke="white" stroke-width="1.02279" stroke-miterlimit="10"/>
<path d="M318.103 395.726C318.103 395.726 363.526 444.769 357.65 484.422C351.774 524.076 256.736 494.492 250.86 491.766C244.984 489.04 240.78 479.733 242.887 460.059C244.473 445.28 249.259 444.114 254.782 442.437C260.306 440.759 318.42 453.345 318.42 453.345" stroke="black" stroke-width="1.53419" stroke-miterlimit="10"/>
<path d="M243.287 457.073C242.679 462.284 244.31 467.812 244.31 467.812C244.31 467.812 241.717 470.487 242.341 475.995C243.701 487.879 263.738 501.483 299.183 503.375C334.628 505.267 346.42 499.913 346.42 499.913" stroke="white" stroke-width="1.02279" stroke-miterlimit="10"/>
<path d="M232.189 452.542C232.189 452.542 203.101 474.399 179.894 472.538" stroke="white" stroke-width="1.02279" stroke-miterlimit="10"/>
<path d="M55.7735 600.238C73.0529 600.238 87.0607 586.23 87.0607 568.951C87.0607 551.671 73.0529 537.664 55.7735 537.664C38.4941 537.664 24.4863 551.671 24.4863 568.951C24.4863 586.23 38.4941 600.238 55.7735 600.238Z" fill="#FF6E6E"/>
<path d="M439.167 367.942C442.85 367.942 445.835 364.956 445.835 361.273C445.835 357.59 442.85 354.604 439.167 354.604C435.484 354.604 432.498 357.59 432.498 361.273C432.498 364.956 435.484 367.942 439.167 367.942Z" fill="black"/>
<path d="M191.651 81.555C195.334 81.555 198.32 78.5693 198.32 74.8864C198.32 71.2034 195.334 68.2178 191.651 68.2178C187.968 68.2178 184.982 71.2034 184.982 74.8864C184.982 78.5693 187.968 81.555 191.651 81.555Z" fill="#FF6E6E"/>
<path d="M456.104 577.9V598.438H435.566V577.9H456.104ZM457.638 576.366H434.032V599.972H457.638V576.366Z" fill="black"/>
<path d="M59.4033 287.627L46.8179 315.636L34.2324 287.627L46.8179 259.618L59.4033 287.627Z" fill="#FF6E6E"/>
<path d="M446.618 128.025L434.032 156.035L421.452 128.025L434.032 100.016L446.618 128.025Z" fill="#0A5DFF"/>
<path d="M35.8135 426.461V502.761" stroke="black" stroke-width="1.53419" stroke-miterlimit="10"/>
<path d="M78.8926 326.784V357.627" stroke="black" stroke-width="1.53419" stroke-miterlimit="10"/>
<path d="M150.995 247.344V279.133" stroke="black" stroke-width="1.53419" stroke-miterlimit="10"/>
<path d="M426.914 1V32.7832" stroke="black" stroke-width="1.53419" stroke-miterlimit="10"/>
<path d="M155.413 23.0461V54.8294" stroke="black" stroke-width="1.53419" stroke-miterlimit="10"/>
<path d="M114.491 122.722V202.03" stroke="black" stroke-width="1.53419" stroke-miterlimit="10"/>
<path d="M184.982 171.816V235.388" stroke="black" stroke-width="1.53419" stroke-miterlimit="10"/>
<path d="M295.98 6.68188V70.2535" stroke="black" stroke-width="1.53419" stroke-miterlimit="10"/>
<path d="M237.227 103.985V147.269" stroke="black" stroke-width="1.53419" stroke-miterlimit="10"/>
<path d="M330.377 195.975V231.997" stroke="black" stroke-width="1.53419" stroke-miterlimit="10"/>
<path d="M372.235 74.8865V147.898" stroke="black" stroke-width="1.53419" stroke-miterlimit="10"/>
<path d="M449.339 202.03V281.332" stroke="black" stroke-width="1.53419" stroke-miterlimit="10"/>
<path d="M402.131 283.853V328.539" stroke="black" stroke-width="1.53419" stroke-miterlimit="10"/>
<path d="M438.006 439.921V482.622" stroke="black" stroke-width="1.53419" stroke-miterlimit="10"/>
<path d="M63.5107 76.7734V120.206" stroke="black" stroke-width="1.53419" stroke-miterlimit="10"/>
<path d="M694.414 600.233H-232" stroke="black" stroke-width="1.53419" stroke-miterlimit="10"/>
</g>
</g>
<defs>
<clipPath id="clip0_807_5660">
<path d="M0 0H466C469.314 0 472 2.68629 472 6V594C472 597.314 469.314 600 466 600H0V0Z" fill="white"/>
</clipPath>
<clipPath id="clip1_807_5660">
<rect width="926.414" height="600" fill="white" transform="translate(-232 1)"/>
</clipPath>
</defs>
</svg>
